<?xml version="1.0" encoding="utf-8"?>
<!-- Generator: Adobe Illustrator 17.0.0, SVG Export Plug-In . SVG Version: 6.00 Build 0)  -->
<!DOCTYPE svg PUBLIC "-//W3C//DTD SVG 1.1//EN" "http://www.w3.org/Graphics/SVG/1.1/DTD/svg11.dtd">
<svg version="1.1" id="Capa_1" xmlns="http://www.w3.org/2000/svg" xmlns:xlink="http://www.w3.org/1999/xlink" x="0px" y="0px"
	 width="341px" height="97px" viewBox="0 0 341 97" enable-background="new 0 0 341 97" xml:space="preserve">
<g>
	<path fill="#007AFF" d="M182.711,34.657h1.892l2.529,7.279h0.039l2.509-7.279h1.912v13.746h-1.969v-8.36h-0.039l-1.95,5.908h-0.984
		l-1.931-5.908h-0.039v8.36h-1.969V34.657z"/>
	<path fill="#007AFF" d="M193.503,34.657h1.969v13.746h-1.969V34.657z"/>
	<path fill="#007AFF" d="M197.307,34.657h1.892l2.973,8.283h0.039v-8.283h1.969v13.746h-1.853l-3.012-8.263h-0.039v8.263h-1.969
		V34.657z"/>
	<path fill="#007AFF" d="M205.956,34.657h5.869v1.853h-3.9v4.036h3.397v1.853h-3.397v4.035h3.9v1.969h-5.869V34.657z"/>
	<path fill="#007AFF" d="M220.552,48.403h-1.737l-2.8-13.746h2.085l1.564,9.596h0.039l1.583-9.596h2.085L220.552,48.403z"/>
	<path fill="#007AFF" d="M224.548,34.657h5.869v1.853h-3.9v4.036h3.397v1.853h-3.397v4.035h3.9v1.969h-5.869V34.657z"/>
	<path fill="#007AFF" d="M231.614,34.657h1.892l2.973,8.283h0.039v-8.283h1.969v13.746h-1.853l-3.012-8.263h-0.039v8.263h-1.969
		V34.657z"/>
	<path fill="#007AFF" d="M241.557,36.51h-2.278v-1.853h6.526v1.853h-2.279v11.893h-1.969V36.51z"/>
	<path fill="#007AFF" d="M246.731,34.657h1.968v13.746h-1.968V34.657z"/>
	<path fill="#007AFF" d="M250.612,34.657h1.97v11.777h3.899v1.969h-5.869V34.657z"/>
	<path fill="#007AFF" d="M259.937,34.657h1.642l3.069,13.746h-1.97l-0.579-2.953h-2.683l-0.579,2.953h-1.97L259.937,34.657z
		 M260.768,38.615h-0.04l-0.965,4.98h1.97L260.768,38.615z"/>
	<path fill="#007AFF" d="M265.845,36.51h-2.278v-1.853h6.525v1.853h-2.279v11.893h-1.968V36.51z"/>
	<path fill="#007AFF" d="M271.019,34.657h1.968v13.746h-1.968V34.657z"/>
	<path fill="#007AFF" d="M274.784,37.901c0-0.553,0.096-1.043,0.288-1.468c0.194-0.424,0.449-0.775,0.764-1.052
		c0.315-0.276,0.669-0.485,1.061-0.627c0.392-0.141,0.788-0.213,1.188-0.213c0.398,0,0.794,0.072,1.188,0.213
		c0.392,0.141,0.745,0.351,1.061,0.627c0.315,0.277,0.569,0.628,0.762,1.052c0.194,0.425,0.29,0.914,0.29,1.468v7.259
		c0,0.567-0.096,1.06-0.29,1.477c-0.192,0.419-0.447,0.766-0.762,1.043c-0.317,0.277-0.669,0.486-1.061,0.628
		c-0.394,0.141-0.79,0.212-1.188,0.212c-0.4,0-0.796-0.071-1.188-0.212c-0.392-0.141-0.747-0.351-1.061-0.628
		c-0.315-0.276-0.569-0.624-0.764-1.043c-0.192-0.418-0.288-0.911-0.288-1.477V37.901z M276.752,45.159
		c0,0.477,0.132,0.828,0.396,1.053s0.577,0.337,0.937,0.337s0.673-0.112,0.937-0.337c0.262-0.225,0.394-0.576,0.394-1.053v-7.259
		c0-0.476-0.132-0.827-0.394-1.052c-0.264-0.225-0.577-0.338-0.937-0.338s-0.673,0.113-0.937,0.338s-0.396,0.576-0.396,1.052V45.159
		z"/>
	<path fill="#007AFF" d="M283.046,34.657h1.893l2.973,8.283h0.038v-8.283h1.97v13.746h-1.853l-3.013-8.263h-0.038v8.263h-1.97
		V34.657z"/>
	<path fill="#007AFF" d="M182.711,51.675h1.893l2.528,7.279h0.04l2.509-7.279h1.912v13.746h-1.97v-8.36h-0.038l-1.951,5.908h-0.984
		l-1.931-5.908h-0.038v8.36h-1.97V51.675z"/>
	<path fill="#007AFF" d="M193.33,54.919c0-0.553,0.098-1.043,0.29-1.468c0.192-0.424,0.447-0.775,0.762-1.052
		c0.317-0.276,0.669-0.485,1.063-0.627c0.392-0.141,0.788-0.213,1.186-0.213c0.4,0,0.796,0.072,1.188,0.213
		c0.392,0.141,0.747,0.351,1.061,0.627c0.317,0.277,0.569,0.628,0.764,1.052c0.192,0.425,0.288,0.914,0.288,1.468v7.259
		c0,0.567-0.096,1.06-0.288,1.477c-0.194,0.419-0.447,0.766-0.764,1.043c-0.315,0.277-0.669,0.486-1.061,0.628
		s-0.788,0.212-1.188,0.212c-0.398,0-0.794-0.071-1.186-0.212c-0.394-0.141-0.747-0.351-1.063-0.628
		c-0.315-0.276-0.569-0.624-0.762-1.043c-0.192-0.418-0.29-0.911-0.29-1.477V54.919z M195.3,62.177c0,0.477,0.132,0.828,0.396,1.053
		c0.264,0.225,0.575,0.337,0.935,0.337s0.673-0.112,0.937-0.337c0.264-0.225,0.396-0.576,0.396-1.053v-7.259
		c0-0.476-0.132-0.827-0.396-1.052c-0.264-0.225-0.577-0.338-0.937-0.338s-0.671,0.113-0.935,0.338
		c-0.264,0.225-0.396,0.576-0.396,1.052V62.177z"/>
	<path fill="#007AFF" d="M201.593,51.675h1.891l2.973,8.283h0.04v-8.283h1.968v13.746h-1.853l-3.011-8.263h-0.04v8.263h-1.968
		V51.675z"/>
	<path fill="#007AFF" d="M210.3,51.675h1.968v13.746H210.3V51.675z"/>
	<path fill="#007AFF" d="M215.474,53.528h-2.278v-1.853h6.525v1.853h-2.278v11.893h-1.97V53.528z"/>
	<path fill="#007AFF" d="M220.242,54.919c0-0.553,0.098-1.043,0.29-1.468c0.192-0.424,0.447-0.775,0.762-1.052
		c0.317-0.276,0.669-0.485,1.063-0.627c0.392-0.141,0.788-0.213,1.186-0.213c0.4,0,0.796,0.072,1.188,0.213
		c0.392,0.141,0.747,0.351,1.061,0.627c0.317,0.277,0.569,0.628,0.764,1.052c0.192,0.425,0.288,0.914,0.288,1.468v7.259
		c0,0.567-0.096,1.06-0.288,1.477c-0.194,0.419-0.447,0.766-0.764,1.043c-0.315,0.277-0.669,0.486-1.061,0.628
		c-0.392,0.141-0.788,0.212-1.188,0.212c-0.398,0-0.794-0.071-1.186-0.212c-0.394-0.141-0.747-0.351-1.063-0.628
		c-0.315-0.276-0.569-0.624-0.762-1.043c-0.192-0.418-0.29-0.911-0.29-1.477V54.919z M222.212,62.177
		c0,0.477,0.132,0.828,0.396,1.053c0.264,0.225,0.575,0.337,0.935,0.337s0.673-0.112,0.937-0.337
		c0.264-0.225,0.396-0.576,0.396-1.053v-7.259c0-0.476-0.132-0.827-0.396-1.052c-0.264-0.225-0.577-0.338-0.937-0.338
		s-0.671,0.113-0.935,0.338c-0.264,0.225-0.396,0.576-0.396,1.052V62.177z"/>
	<path fill="#007AFF" d="M228.583,51.675h3.166c2.317,0,3.475,1.345,3.475,4.036c0,0.798-0.124,1.483-0.375,2.056
		c-0.251,0.572-0.692,1.032-1.324,1.38l2.125,6.275h-2.085l-1.834-5.869h-1.178v5.869h-1.968V51.675z M230.551,57.815h1.12
		c0.347,0,0.624-0.048,0.83-0.145c0.207-0.096,0.364-0.235,0.473-0.415c0.109-0.18,0.185-0.403,0.222-0.666
		c0.04-0.263,0.058-0.569,0.058-0.916c0-0.348-0.019-0.653-0.058-0.917c-0.038-0.264-0.119-0.489-0.241-0.676
		c-0.123-0.187-0.292-0.325-0.511-0.415c-0.219-0.09-0.509-0.136-0.869-0.136h-1.024V57.815z"/>
	<path fill="#007AFF" d="M236.863,51.675h1.97v13.746h-1.97V51.675z"/>
	<path fill="#007AFF" d="M240.668,51.675h1.891l2.973,8.283h0.04v-8.283h1.968v13.746h-1.853l-3.011-8.263h-0.04v8.263h-1.968
		V51.675z"/>
	<path fill="#007AFF" d="M249.201,54.919c0-0.553,0.096-1.043,0.288-1.468c0.194-0.424,0.449-0.775,0.764-1.052
		c0.315-0.276,0.669-0.485,1.061-0.627c0.392-0.141,0.788-0.213,1.188-0.213c0.398,0,0.794,0.072,1.188,0.213
		c0.392,0.141,0.745,0.351,1.061,0.627c0.315,0.277,0.569,0.628,0.762,1.052c0.194,0.425,0.29,0.914,0.29,1.468v0.695h-1.97v-0.695
		c0-0.476-0.132-0.827-0.394-1.052c-0.264-0.225-0.577-0.338-0.937-0.338s-0.673,0.113-0.937,0.338
		c-0.264,0.225-0.396,0.576-0.396,1.052v7.259c0,0.477,0.132,0.828,0.396,1.053c0.264,0.225,0.577,0.337,0.937,0.337
		s0.673-0.112,0.937-0.337c0.262-0.225,0.394-0.576,0.394-1.053v-2.587h-1.563v-1.737h3.533v4.324c0,0.567-0.096,1.06-0.29,1.477
		c-0.192,0.419-0.447,0.766-0.762,1.043c-0.317,0.277-0.669,0.486-1.061,0.628c-0.394,0.141-0.79,0.212-1.188,0.212
		c-0.4,0-0.796-0.071-1.188-0.212c-0.392-0.141-0.747-0.351-1.061-0.628c-0.315-0.276-0.569-0.624-0.764-1.043
		c-0.192-0.418-0.288-0.911-0.288-1.477V54.919z"/>
	<path fill="#007AFF" d="M267.505,55.633h-1.97v-0.444c0-0.451-0.106-0.84-0.319-1.168c-0.211-0.329-0.569-0.493-1.071-0.493
		c-0.27,0-0.492,0.052-0.666,0.155c-0.173,0.104-0.309,0.235-0.405,0.396c-0.098,0.161-0.164,0.348-0.204,0.56
		c-0.038,0.212-0.058,0.435-0.058,0.666c0,0.271,0.011,0.5,0.03,0.686c0.019,0.187,0.068,0.347,0.145,0.483
		c0.077,0.135,0.189,0.254,0.337,0.356c0.147,0.104,0.351,0.206,0.607,0.309l1.506,0.599c0.437,0.168,0.792,0.364,1.061,0.589
		c0.271,0.225,0.479,0.489,0.628,0.791c0.147,0.303,0.247,0.65,0.3,1.043c0.051,0.393,0.077,0.84,0.077,1.342
		c0,0.579-0.058,1.116-0.173,1.612c-0.117,0.495-0.307,0.92-0.571,1.274c-0.264,0.354-0.615,0.634-1.052,0.84
		s-0.971,0.309-1.603,0.309c-0.475,0-0.92-0.084-1.331-0.251c-0.413-0.168-0.765-0.396-1.063-0.685
		c-0.294-0.29-0.53-0.634-0.703-1.033c-0.173-0.399-0.262-0.831-0.262-1.293v-0.733h1.97v0.617c0,0.36,0.107,0.685,0.319,0.975
		c0.213,0.289,0.569,0.435,1.071,0.435c0.336,0,0.596-0.048,0.782-0.145c0.187-0.096,0.328-0.231,0.424-0.405
		c0.098-0.173,0.158-0.389,0.185-0.647c0.025-0.257,0.038-0.54,0.038-0.849c0-0.36-0.013-0.656-0.038-0.888
		c-0.026-0.232-0.081-0.419-0.164-0.56c-0.085-0.141-0.2-0.257-0.349-0.348c-0.147-0.09-0.343-0.186-0.588-0.289l-1.408-0.579
		c-0.85-0.348-1.42-0.808-1.71-1.381c-0.29-0.572-0.434-1.29-0.434-2.152c0-0.515,0.072-1.004,0.211-1.468
		c0.143-0.463,0.351-0.862,0.63-1.196c0.275-0.335,0.626-0.601,1.05-0.801c0.426-0.2,0.92-0.3,1.488-0.3
		c0.488,0,0.937,0.09,1.342,0.271s0.752,0.419,1.043,0.715c0.288,0.296,0.511,0.627,0.666,0.995
		c0.155,0.367,0.232,0.743,0.232,1.129V55.633z"/>
	<path fill="#007AFF" d="M268.971,51.675h2.953c0.541,0,1.016,0.071,1.429,0.213c0.411,0.141,0.784,0.392,1.12,0.752
		c0.334,0.361,0.566,0.782,0.696,1.265c0.128,0.483,0.192,1.136,0.192,1.959c0,0.605-0.036,1.124-0.106,1.555
		c-0.072,0.432-0.222,0.833-0.454,1.207c-0.27,0.451-0.632,0.801-1.08,1.052c-0.451,0.251-1.043,0.377-1.778,0.377h-1.003v5.367
		h-1.968V51.675z M270.94,58.2h0.946c0.398,0,0.707-0.058,0.926-0.173c0.219-0.116,0.381-0.273,0.483-0.473
		c0.104-0.199,0.164-0.44,0.185-0.724c0.019-0.283,0.028-0.598,0.028-0.946c0-0.321-0.009-0.628-0.028-0.917
		c-0.021-0.289-0.077-0.54-0.175-0.753c-0.096-0.212-0.247-0.379-0.453-0.502c-0.207-0.123-0.501-0.184-0.888-0.184h-1.024V58.2z"/>
	<path fill="#007AFF" d="M276.83,51.675h5.867v1.853h-3.899v4.036h3.397v1.853h-3.397v4.035h3.899v1.969h-5.867V51.675z"/>
	<path fill="#007AFF" d="M290.227,62.352c0,0.424-0.079,0.83-0.241,1.216c-0.16,0.387-0.383,0.724-0.666,1.013
		c-0.283,0.289-0.615,0.521-0.994,0.695c-0.381,0.174-0.79,0.261-1.227,0.261c-0.373,0-0.752-0.052-1.139-0.155
		s-0.733-0.28-1.043-0.531s-0.562-0.583-0.762-0.995c-0.2-0.412-0.3-0.933-0.3-1.564v-7.568c0-0.451,0.077-0.869,0.232-1.255
		c0.155-0.387,0.373-0.721,0.656-1.004c0.283-0.283,0.62-0.505,1.014-0.666c0.392-0.16,0.826-0.241,1.303-0.241
		c0.451,0,0.869,0.081,1.256,0.241c0.385,0.161,0.72,0.387,1.003,0.676c0.283,0.289,0.505,0.637,0.666,1.043
		c0.162,0.405,0.241,0.847,0.241,1.323v0.772h-1.968v-0.656c0-0.387-0.109-0.721-0.328-1.004c-0.219-0.283-0.515-0.425-0.888-0.425
		c-0.49,0-0.814,0.152-0.975,0.454c-0.162,0.303-0.241,0.685-0.241,1.148v7.028c0,0.399,0.087,0.733,0.26,1.004
		s0.485,0.405,0.935,0.405c0.13,0,0.268-0.023,0.417-0.068c0.147-0.044,0.283-0.119,0.405-0.222
		c0.121-0.103,0.221-0.244,0.298-0.425c0.077-0.18,0.117-0.405,0.117-0.676v-0.675h1.968V62.352z"/>
	<path fill="#007AFF" d="M291.888,51.675h1.97v13.746h-1.97V51.675z"/>
	<path fill="#007AFF" d="M297.952,51.675h1.64l3.069,13.746h-1.968l-0.579-2.953h-2.685l-0.579,2.953h-1.97L297.952,51.675z
		 M298.781,55.633h-0.04l-0.965,4.98h1.97L298.781,55.633z"/>
	<path fill="#007AFF" d="M303.629,51.675h1.968v11.777h3.899v1.969h-5.867V51.675z"/>
	<path fill="#007AFF" d="M310.829,51.675h1.97v13.746h-1.97V51.675z"/>
	<path fill="#007AFF" d="M321.082,55.633h-1.97v-0.444c0-0.451-0.106-0.84-0.319-1.168c-0.211-0.329-0.569-0.493-1.071-0.493
		c-0.27,0-0.492,0.052-0.666,0.155c-0.173,0.104-0.309,0.235-0.405,0.396c-0.098,0.161-0.164,0.348-0.204,0.56
		c-0.038,0.212-0.058,0.435-0.058,0.666c0,0.271,0.011,0.5,0.03,0.686c0.019,0.187,0.068,0.347,0.145,0.483
		c0.077,0.135,0.189,0.254,0.337,0.356c0.147,0.104,0.351,0.206,0.607,0.309l1.506,0.599c0.437,0.168,0.792,0.364,1.061,0.589
		c0.271,0.225,0.479,0.489,0.628,0.791c0.147,0.303,0.247,0.65,0.3,1.043c0.051,0.393,0.077,0.84,0.077,1.342
		c0,0.579-0.058,1.116-0.173,1.612c-0.117,0.495-0.307,0.92-0.571,1.274c-0.264,0.354-0.615,0.634-1.052,0.84
		s-0.971,0.309-1.603,0.309c-0.475,0-0.92-0.084-1.331-0.251c-0.413-0.168-0.765-0.396-1.061-0.685
		c-0.296-0.29-0.532-0.634-0.705-1.033c-0.173-0.399-0.26-0.831-0.26-1.293v-0.733h1.968v0.617c0,0.36,0.107,0.685,0.319,0.975
		c0.213,0.289,0.569,0.435,1.071,0.435c0.336,0,0.596-0.048,0.782-0.145c0.187-0.096,0.328-0.231,0.424-0.405
		c0.098-0.173,0.158-0.389,0.185-0.647c0.025-0.257,0.038-0.54,0.038-0.849c0-0.36-0.013-0.656-0.038-0.888
		c-0.026-0.232-0.081-0.419-0.164-0.56c-0.085-0.141-0.2-0.257-0.349-0.348c-0.147-0.09-0.343-0.186-0.588-0.289l-1.408-0.579
		c-0.85-0.348-1.42-0.808-1.71-1.381c-0.288-0.572-0.434-1.29-0.434-2.152c0-0.515,0.07-1.004,0.213-1.468
		c0.141-0.463,0.349-0.862,0.626-1.196s0.628-0.601,1.052-0.801c0.426-0.2,0.92-0.3,1.488-0.3c0.488,0,0.937,0.09,1.342,0.271
		s0.752,0.419,1.043,0.715c0.288,0.296,0.511,0.627,0.666,0.995c0.155,0.367,0.232,0.743,0.232,1.129V55.633z"/>
	<path fill="#007AFF" d="M323.842,53.528h-2.279v-1.853h6.525v1.853h-2.278v11.893h-1.968V53.528z"/>
	<path fill="#007AFF" d="M335.33,55.633h-1.97v-0.444c0-0.451-0.106-0.84-0.319-1.168c-0.211-0.329-0.569-0.493-1.071-0.493
		c-0.27,0-0.492,0.052-0.666,0.155c-0.173,0.104-0.309,0.235-0.405,0.396c-0.098,0.161-0.164,0.348-0.204,0.56
		c-0.038,0.212-0.058,0.435-0.058,0.666c0,0.271,0.011,0.5,0.03,0.686c0.019,0.187,0.068,0.347,0.145,0.483
		c0.077,0.135,0.189,0.254,0.337,0.356c0.147,0.104,0.351,0.206,0.607,0.309l1.506,0.599c0.437,0.168,0.792,0.364,1.061,0.589
		c0.271,0.225,0.479,0.489,0.628,0.791c0.147,0.303,0.247,0.65,0.3,1.043c0.051,0.393,0.077,0.84,0.077,1.342
		c0,0.579-0.058,1.116-0.173,1.612c-0.117,0.495-0.307,0.92-0.571,1.274c-0.264,0.354-0.615,0.634-1.052,0.84
		s-0.971,0.309-1.603,0.309c-0.475,0-0.92-0.084-1.331-0.251c-0.413-0.168-0.765-0.396-1.061-0.685
		c-0.296-0.29-0.532-0.634-0.705-1.033c-0.173-0.399-0.26-0.831-0.26-1.293v-0.733h1.968v0.617c0,0.36,0.107,0.685,0.319,0.975
		c0.213,0.289,0.569,0.435,1.071,0.435c0.336,0,0.596-0.048,0.782-0.145c0.187-0.096,0.328-0.231,0.424-0.405
		c0.098-0.173,0.158-0.389,0.185-0.647c0.025-0.257,0.038-0.54,0.038-0.849c0-0.36-0.013-0.656-0.038-0.888
		c-0.026-0.232-0.081-0.419-0.164-0.56c-0.085-0.141-0.2-0.257-0.349-0.348c-0.147-0.09-0.343-0.186-0.588-0.289l-1.408-0.579
		c-0.85-0.348-1.42-0.808-1.71-1.381c-0.288-0.572-0.434-1.29-0.434-2.152c0-0.515,0.07-1.004,0.213-1.468
		c0.141-0.463,0.349-0.862,0.626-1.196s0.628-0.601,1.052-0.801c0.426-0.2,0.92-0.3,1.488-0.3c0.488,0,0.937,0.09,1.342,0.271
		s0.752,0.419,1.043,0.715c0.288,0.296,0.511,0.627,0.666,0.995c0.155,0.367,0.232,0.743,0.232,1.129V55.633z"/>
</g>
<g>
	<g opacity="0.4">
		<path fill="#35A8E0" d="M34.351,8.067c-0.415,0.221-0.712,0.399-0.712,0.399c-0.57,0.295-1.115,0.619-1.643,0.959
			c0.688,0.573,1.407,1.279,2.127,2.185c0.929-0.869,1.841-1.591,2.69-2.178C36.11,8.95,35.292,8.481,34.351,8.067z"/>
		<path fill="#35A8E0" d="M73.59,83.709c-0.803,0.752-1.673,1.449-2.601,2.075c0.938,0.791,1.809,1.316,2.545,1.656
			c0.789-0.349,1.64-0.808,2.529-1.391C74.831,85.176,74.03,84.291,73.59,83.709z"/>
		<path fill="#35A8E0" d="M22.062,6.943c0,0-13.139,3.273-17.038,23.047h4.768c0,0,2.844-15.725,14.185-21.56
			c0,0,2.158-1.325,3.205-1.27c0,0,0.956,0.043,2.344,0.68c0.851-0.41,1.51-0.65,1.875-0.765C28.899,6.472,25.828,6.28,22.062,6.943
			z"/>
		<path fill="#35A8E0" d="M66.24,88.046c0,0-6.614,0.109-11.355-12.477c0,0-2.615-7.189-3.341-12.053L48.092,39.66
			c0,0-1.121-14.56-7.64-26.583c0,0-0.376-0.65-1.178-1.53c-1.138,1.036-2.156,2.169-3.056,3.349c0.399,0.777,0.798,1.597,1.17,2.53
			c0,0,3.187,5.97,5.638,22.318c0,0,2.391,19.409,3.434,23.949c0,0,0.981,8.251,6.945,19.369c0,0,3.68,6.865,15.367,5.556
			c0,0,0.856,0.027,2.234-0.304c-1.081-0.256-2.02-0.6-2.857-0.979C67.534,87.604,66.905,87.847,66.24,88.046z"/>
		<path fill="#35A8E0" d="M88.458,65.355l-5.336,0.014c0,0-1.546,8.103-6.408,14.778c0.767,1.393,1.553,2.548,2.319,3.492
			C82.481,80.298,86.054,74.71,88.458,65.355z"/>
		<path fill="#35A8E0" d="M98.116,65.391l-5.331,0.016c0,0-2.644,13.804-11.852,20.216c0.934,0.815,1.812,1.359,2.56,1.715
			C88,85.231,94.433,79.734,98.116,65.391z"/>
		<path fill="#35A8E0" d="M14.683,30.026h4.768c0,0,2.576-14.173,12.545-20.6c-0.899-0.744-1.742-1.251-2.469-1.586
			C25.618,9.725,17.587,15.295,14.683,30.026z"/>
		<path fill="#35A8E0" d="M64.544,75.605c0,0-2.61-7.188-3.336-12.051l-3.455-23.859c0,0-1.122-14.557-7.641-26.581
			c0,0-1.717-3.005-5.95-4.943c-0.265,0.145-0.441,0.25-0.441,0.25c-0.678,0.349-1.32,0.734-1.938,1.146
			c1.752,1.495,3.679,3.917,5.265,7.899c0,0,3.187,5.968,5.641,22.314c0,0,2.388,19.409,3.433,23.95c0,0,0.979,8.253,6.945,19.369
			c0,0,1.376,2.539,5.082,4.235c1.012-0.439,1.955-0.958,2.84-1.549C68.941,84.04,66.573,80.986,64.544,75.605z"/>
		<path fill="#35A8E0" d="M36.846,7.194c0,0,1.014,0.05,2.473,0.747c0.78-0.394,1.418-0.65,1.847-0.801
			c-2.518-0.625-5.624-0.834-9.445-0.16c0,0-0.114,0.028-0.318,0.095c1.094,0.262,2.075,0.6,2.949,0.993
			C35.077,7.678,36.185,7.163,36.846,7.194z"/>
		<path fill="#35A8E0" d="M75.899,88.082c0,0-0.939,0.016-2.365-0.641c-0.952,0.423-1.811,0.7-2.528,0.872
			c2.008,0.48,4.456,0.677,7.425,0.344c0,0,1.017,0.025,2.601-0.405c-1.105-0.267-2.06-0.62-2.909-1.014
			C77.414,87.563,76.678,87.853,75.899,88.082z"/>
		<path fill="#35A8E0" d="M70.989,85.785c-0.885,0.591-1.828,1.11-2.84,1.549c0.837,0.38,1.776,0.723,2.857,0.979
			c0.717-0.172,1.577-0.449,2.528-0.872C72.798,87.101,71.927,86.576,70.989,85.785z"/>
		<path fill="#35A8E0" d="M34.351,8.067c-0.874-0.393-1.855-0.731-2.949-0.993C31.037,7.19,30.378,7.43,29.527,7.84
			c0.727,0.334,1.57,0.841,2.469,1.586c0.528-0.341,1.073-0.665,1.643-0.959C33.64,8.466,33.936,8.288,34.351,8.067z"/>
		<path fill="#35A8E0" d="M102.866,65.366c0,0-3.563,18.667-16.885,22.675c0,0-0.997,0.013-2.488-0.702
			c-0.914,0.43-1.746,0.72-2.461,0.913c2.018,0.485,4.484,0.693,7.482,0.356c0,0,13.604,0.43,19.682-23.262L102.866,65.366z"/>
		<path fill="#35A8E0" d="M24.763,29.983h4.768c0,0,1.51-8.308,6.687-15.087c-0.677-1.291-1.384-2.391-2.094-3.285
			C30.514,14.979,26.609,20.632,24.763,29.983z"/>
		<path fill="#35A8E0" d="M46.927,7.151c0,0,6.197,0.215,10.199,10.27c0,0,3.19,5.966,5.64,22.313c0,0,2.392,19.409,3.434,23.947
			c0,0,0.98,8.253,6.948,19.373c0,0,0.14,0.254,0.441,0.655c1.169-1.092,2.205-2.303,3.125-3.561
			c-0.718-1.304-1.423-2.815-2.09-4.586c0,0-2.611-7.189-3.34-12.056l-3.451-23.852c0,0-1.122-14.562-7.639-26.584
			c0,0-4.811-8.524-18.394-6.134c0,0-0.229,0.061-0.635,0.204c1.115,0.273,2.115,0.624,2.997,1.032
			C44.846,7.79,46.172,7.115,46.927,7.151z"/>
		<path fill="#35A8E0" d="M78.123,87.239c0.999-0.462,1.935-1.008,2.81-1.615c-0.612-0.537-1.248-1.187-1.9-1.984
			c-1.013,0.983-2.014,1.775-2.97,2.41C76.647,86.463,77.331,86.866,78.123,87.239z"/>
		<path fill="#35A8E0" d="M39.318,7.94c-0.729,0.366-1.581,0.853-2.505,1.492c1.069,0.733,1.878,1.479,2.46,2.115
			c0.778-0.711,1.612-1.377,2.51-1.98C40.892,8.808,40.052,8.288,39.318,7.94z"/>
		<path fill="#35A8E0" d="M39.274,11.547c-0.582-0.636-1.391-1.381-2.46-2.115c-0.849,0.587-1.76,1.309-2.69,2.178
			c0.71,0.894,1.417,1.994,2.094,3.285C37.118,13.716,38.136,12.582,39.274,11.547z"/>
		<path fill="#35A8E0" d="M73.59,83.709c0.44,0.582,1.241,1.467,2.474,2.34c0.956-0.636,1.957-1.427,2.97-2.41
			c-0.766-0.944-1.551-2.099-2.319-3.492C75.795,81.407,74.759,82.617,73.59,83.709z"/>
		<path fill="#35A8E0" d="M41.783,9.567c0.619-0.412,1.261-0.797,1.938-1.146c0,0,0.175-0.104,0.441-0.25
			c-0.882-0.408-1.882-0.759-2.997-1.032c-0.429,0.151-1.067,0.407-1.847,0.801C40.052,8.288,40.892,8.808,41.783,9.567z"/>
		<path fill="#35A8E0" d="M80.933,85.623c-0.876,0.607-1.811,1.153-2.81,1.615c0.849,0.394,1.804,0.747,2.909,1.014
			c0.715-0.193,1.547-0.483,2.461-0.913C82.745,86.982,81.867,86.438,80.933,85.623z"/>
	</g>
	<g>
		<g>
			<path fill="#007AFF" d="M82.406,47.475h-6.889V44.88c0-2.242-0.504-3.281-1.963-3.281c-1.458,0-1.811,1.194-1.811,3.644v11.143
				c0,2.451,0.3,3.646,1.761,3.646c1.461,0,1.812-1.194,1.812-3.646v-2.912h7.091v2.861c0,5.776-2.564,8.176-8.701,8.176
				c-7.146,0-9.057-3.126-9.057-11.718v-3.96c0-8.589,1.911-11.713,9.057-11.713c6.137,0,8.701,2.394,8.701,8.173V47.475z"/>
			<path fill="#007AFF" d="M62.492,47.477h-6.897v-2.598c0-2.241-0.502-3.28-1.956-3.28c-1.463,0-1.812,1.195-1.812,3.644v11.144
				c0,2.448,0.299,3.642,1.761,3.642c1.456,0,1.809-1.194,1.809-3.642v-2.915h7.094v2.863c0,5.78-2.566,8.174-8.702,8.174
				c-7.145,0-9.058-3.121-9.058-11.714v-3.962c0-8.59,1.913-11.711,9.058-11.711c6.136,0,8.702,2.393,8.702,8.172V47.477z"/>
			<path fill="#007AFF" d="M31.885,39.005h0.438l1.171,13.317l-3.077,0.07L31.885,39.005z M25.844,31.473l-4.132,32.116l8.371,0.005
				l0.48-5.784l3.151,0.073l0.511,5.777h8.197l-4.759-32.19L25.844,31.473z"/>
			<path fill="#007AFF" d="M91.415,37.614l-0.189,18.989c0,2.106,0.251,3.134,1.573,3.134c1.168,0,1.573-0.976,1.573-3.134
				l0.196-18.989h7.157V63.4h-6.956l-0.201-2.981c-1.63,2.414-3.352,3.599-5.434,3.599c-4.011,0-4.927-2.412-4.927-7.601V37.614
				H91.415z"/>
			<path fill="#61C5F1" d="M113.145,37.915l2.319-0.064l-0.035,3.894h-2.245l0.043,13.89c0,2.337-0.293,3.825,1.208,3.825
				c0.561,0,1.285,0.081,1.285,0.039l-0.041,4.242c-0.038,0-5.367,0.066-6.363-0.206c-4.032-1.126-3.782-1.687-3.782-7.61V41.828
				l-1.789,0.04l-0.043-3.952h1.832v-4.239h7.611V37.915z"/>
			<path fill="#61C5F1" d="M129.765,45.917c-1.829,0.211-4.567-0.161-4.567,3.865v13.943l-7.986,0.056V37.194l7.846,0.08
				l-0.142,3.232c1.452-2.169,2.068-3.219,4.489-3.724c0.206-0.04,0.418-0.004,0.413,0L129.765,45.917z"/>
			<path fill="#61C5F1" d="M142.531,44.915v11.14c0,2.449-0.361,3.646-1.853,3.646c-1.49,0-1.795-1.196-1.795-3.646v-11.14
				c0-2.45,0.357-3.647,1.847-3.647C142.223,41.267,142.531,42.516,142.531,44.915z M149.777,48.505
				c0-8.488-1.954-11.715-9.099-11.715c-7.089,0-9.044,3.228-9.044,11.715v3.956c0,8.491,1.955,11.716,9.096,11.716
				c7.094,0,9.047-3.225,9.047-11.716V48.505z"/>
			<path fill="#61C5F1" d="M170.753,63.781h-7.557V45.35c0-2.104-0.267-3.207-1.596-3.207c-1.279,0-1.701,0.998-1.701,3.207v18.431
				h-7.508V37.417h7.291l0.217,3.049c1.701-2.468,3.51-3.676,5.69-3.676c4.207,0,5.165,2.466,5.165,7.772V63.781z"/>
		</g>
	</g>
</g>
</svg>
